<mxfile host="app.diagrams.net" modified="2023-07-27T12:45:50.763Z" agent="Mozilla/5.0 (Windows NT 10.0; Win64; x64) AppleWebKit/537.36 (KHTML, like Gecko) Chrome/115.0.0.0 Safari/537.36" etag="ZK_k0uoLC23QmEPXQjaJ" version="21.6.5" type="device">
  <diagram name="PÃ¡gina-1" id="5bJitqmDnJwxHmi_6_XH">
    <mxGraphModel dx="1185" dy="771" grid="1" gridSize="10" guides="1" tooltips="1" connect="1" arrows="1" fold="1" page="1" pageScale="1" pageWidth="827" pageHeight="1169" math="0" shadow="0">
      <root>
        <mxCell id="0" />
        <mxCell id="1" parent="0" />
        <mxCell id="qgdg5FzD-XTKd9nXZ4XO-2" value="Pedidos" style="whiteSpace=wrap;html=1;align=center;" vertex="1" parent="1">
          <mxGeometry x="140" y="380" width="100" height="40" as="geometry" />
        </mxCell>
        <mxCell id="qgdg5FzD-XTKd9nXZ4XO-3" value="Cardapio" style="whiteSpace=wrap;html=1;align=center;" vertex="1" parent="1">
          <mxGeometry y="160" width="100" height="40" as="geometry" />
        </mxCell>
        <mxCell id="qgdg5FzD-XTKd9nXZ4XO-4" value="Itens_pedido" style="whiteSpace=wrap;html=1;align=center;" vertex="1" parent="1">
          <mxGeometry x="-80" y="380" width="100" height="40" as="geometry" />
        </mxCell>
        <mxCell id="qgdg5FzD-XTKd9nXZ4XO-5" value="Cliente" style="whiteSpace=wrap;html=1;align=center;" vertex="1" parent="1">
          <mxGeometry x="370" y="380" width="100" height="40" as="geometry" />
        </mxCell>
        <mxCell id="qgdg5FzD-XTKd9nXZ4XO-6" value="Motoboy" style="whiteSpace=wrap;html=1;align=center;" vertex="1" parent="1">
          <mxGeometry x="290" y="160" width="100" height="40" as="geometry" />
        </mxCell>
        <mxCell id="qgdg5FzD-XTKd9nXZ4XO-8" value="Attribute" style="ellipse;whiteSpace=wrap;html=1;align=center;" vertex="1" parent="1">
          <mxGeometry x="60" y="610" width="100" height="40" as="geometry" />
        </mxCell>
        <mxCell id="qgdg5FzD-XTKd9nXZ4XO-9" value="Attribute" style="ellipse;whiteSpace=wrap;html=1;align=center;" vertex="1" parent="1">
          <mxGeometry x="70" y="620" width="100" height="40" as="geometry" />
        </mxCell>
        <mxCell id="qgdg5FzD-XTKd9nXZ4XO-10" value="Attribute" style="ellipse;whiteSpace=wrap;html=1;align=center;" vertex="1" parent="1">
          <mxGeometry x="80" y="630" width="100" height="40" as="geometry" />
        </mxCell>
        <mxCell id="qgdg5FzD-XTKd9nXZ4XO-11" value="Attribute" style="ellipse;whiteSpace=wrap;html=1;align=center;" vertex="1" parent="1">
          <mxGeometry x="90" y="640" width="100" height="40" as="geometry" />
        </mxCell>
        <mxCell id="qgdg5FzD-XTKd9nXZ4XO-12" value="Attribute" style="ellipse;whiteSpace=wrap;html=1;align=center;" vertex="1" parent="1">
          <mxGeometry x="100" y="650" width="100" height="40" as="geometry" />
        </mxCell>
        <mxCell id="qgdg5FzD-XTKd9nXZ4XO-14" value="Attribute" style="ellipse;whiteSpace=wrap;html=1;align=center;" vertex="1" parent="1">
          <mxGeometry x="210" y="260" width="100" height="40" as="geometry" />
        </mxCell>
        <mxCell id="qgdg5FzD-XTKd9nXZ4XO-15" value="Attribute" style="ellipse;whiteSpace=wrap;html=1;align=center;" vertex="1" parent="1">
          <mxGeometry x="100" y="260" width="100" height="40" as="geometry" />
        </mxCell>
        <mxCell id="qgdg5FzD-XTKd9nXZ4XO-16" value="id" style="ellipse;whiteSpace=wrap;html=1;align=center;fontStyle=4;" vertex="1" parent="1">
          <mxGeometry x="40" y="500" width="100" height="40" as="geometry" />
        </mxCell>
        <mxCell id="qgdg5FzD-XTKd9nXZ4XO-24" style="rounded=0;orthogonalLoop=1;jettySize=auto;html=1;exitX=1;exitY=0;exitDx=0;exitDy=0;entryX=0;entryY=1;entryDx=0;entryDy=0;" edge="1" parent="1" source="qgdg5FzD-XTKd9nXZ4XO-17" target="qgdg5FzD-XTKd9nXZ4XO-5">
          <mxGeometry relative="1" as="geometry" />
        </mxCell>
        <mxCell id="qgdg5FzD-XTKd9nXZ4XO-17" value="id" style="ellipse;whiteSpace=wrap;html=1;align=center;fontStyle=4;" vertex="1" parent="1">
          <mxGeometry x="250" y="460" width="100" height="40" as="geometry" />
        </mxCell>
        <mxCell id="qgdg5FzD-XTKd9nXZ4XO-18" value="id" style="ellipse;whiteSpace=wrap;html=1;align=center;fontStyle=4;" vertex="1" parent="1">
          <mxGeometry x="-180" y="500" width="100" height="40" as="geometry" />
        </mxCell>
        <mxCell id="qgdg5FzD-XTKd9nXZ4XO-26" style="rounded=0;orthogonalLoop=1;jettySize=auto;html=1;exitX=1;exitY=0;exitDx=0;exitDy=0;entryX=0.14;entryY=1;entryDx=0;entryDy=0;entryPerimeter=0;" edge="1" parent="1" source="qgdg5FzD-XTKd9nXZ4XO-20" target="qgdg5FzD-XTKd9nXZ4XO-5">
          <mxGeometry relative="1" as="geometry" />
        </mxCell>
        <mxCell id="qgdg5FzD-XTKd9nXZ4XO-20" value="cpf&lt;br&gt;" style="ellipse;whiteSpace=wrap;html=1;align=center;fontStyle=4;" vertex="1" parent="1">
          <mxGeometry x="290" y="510" width="100" height="40" as="geometry" />
        </mxCell>
        <mxCell id="qgdg5FzD-XTKd9nXZ4XO-30" style="rounded=0;orthogonalLoop=1;jettySize=auto;html=1;exitX=0.5;exitY=0;exitDx=0;exitDy=0;" edge="1" parent="1" source="qgdg5FzD-XTKd9nXZ4XO-21" target="qgdg5FzD-XTKd9nXZ4XO-5">
          <mxGeometry relative="1" as="geometry" />
        </mxCell>
        <mxCell id="qgdg5FzD-XTKd9nXZ4XO-21" value="nome" style="ellipse;whiteSpace=wrap;html=1;align=center;" vertex="1" parent="1">
          <mxGeometry x="364" y="560" width="100" height="40" as="geometry" />
        </mxCell>
        <mxCell id="qgdg5FzD-XTKd9nXZ4XO-28" style="rounded=0;orthogonalLoop=1;jettySize=auto;html=1;exitX=0;exitY=0;exitDx=0;exitDy=0;entryX=0.75;entryY=1;entryDx=0;entryDy=0;" edge="1" parent="1" source="qgdg5FzD-XTKd9nXZ4XO-22" target="qgdg5FzD-XTKd9nXZ4XO-5">
          <mxGeometry relative="1" as="geometry" />
        </mxCell>
        <mxCell id="qgdg5FzD-XTKd9nXZ4XO-22" value="endereco" style="ellipse;whiteSpace=wrap;html=1;align=center;" vertex="1" parent="1">
          <mxGeometry x="450" y="510" width="100" height="40" as="geometry" />
        </mxCell>
        <mxCell id="qgdg5FzD-XTKd9nXZ4XO-29" style="rounded=0;orthogonalLoop=1;jettySize=auto;html=1;exitX=0;exitY=0;exitDx=0;exitDy=0;entryX=1;entryY=1;entryDx=0;entryDy=0;" edge="1" parent="1" source="qgdg5FzD-XTKd9nXZ4XO-23" target="qgdg5FzD-XTKd9nXZ4XO-5">
          <mxGeometry relative="1" as="geometry" />
        </mxCell>
        <mxCell id="qgdg5FzD-XTKd9nXZ4XO-23" value="telefone" style="ellipse;shape=doubleEllipse;margin=3;whiteSpace=wrap;html=1;align=center;" vertex="1" parent="1">
          <mxGeometry x="480" y="460" width="100" height="40" as="geometry" />
        </mxCell>
      </root>
    </mxGraphModel>
  </diagram>
</mxfile>
